<?xml version="1.0" encoding="UTF-8" standalone="no"?>
<!-- Created with Inkscape (http://www.inkscape.org/) -->

<svg
   xmlns:dc="http://purl.org/dc/elements/1.1/"
   xmlns:cc="http://creativecommons.org/ns#"
   xmlns:rdf="http://www.w3.org/1999/02/22-rdf-syntax-ns#"
   xmlns:svg="http://www.w3.org/2000/svg"
   xmlns="http://www.w3.org/2000/svg"
   xmlns:sodipodi="http://sodipodi.sourceforge.net/DTD/sodipodi-0.dtd"
   xmlns:inkscape="http://www.inkscape.org/namespaces/inkscape"
   version="1.1"
   id="svg885"
   width="638.37085"
   height="638.68781"
   viewBox="0 0 638.37085 638.68781"
   sodipodi:docname="15_min.svg"
   inkscape:version="0.92.3 (2405546, 2018-03-11)">
  <metadata
     id="metadata891">
    <rdf:RDF>
      <cc:Work
         rdf:about="">
        <dc:format>image/svg+xml</dc:format>
        <dc:type
           rdf:resource="http://purl.org/dc/dcmitype/StillImage" />
        <dc:title></dc:title>
      </cc:Work>
    </rdf:RDF>
  </metadata>
  <defs
     id="defs889" />
  <sodipodi:namedview
     pagecolor="#ffffff"
     bordercolor="#666666"
     borderopacity="1"
     objecttolerance="10"
     gridtolerance="10"
     guidetolerance="10"
     inkscape:pageopacity="0"
     inkscape:pageshadow="2"
     inkscape:window-width="1861"
     inkscape:window-height="1025"
     id="namedview887"
     showgrid="false"
     inkscape:zoom="0.65805885"
     inkscape:cx="-158.18767"
     inkscape:cy="319.34286"
     inkscape:window-x="59"
     inkscape:window-y="27"
     inkscape:window-maximized="1"
     inkscape:current-layer="svg885"
     fit-margin-top="0"
     fit-margin-left="0"
     fit-margin-right="0"
     fit-margin-bottom="0" />
  <path
     inkscape:connector-curvature="0"
     id="path899"
     d="M 294.9733,637.72989 C 239.40127,633.30178 188.18025,615.69867 142.6533,585.38214 49.338024,523.24325 -4.5380662,417.57719 0.30040377,306.1884 2.2521238,261.25686 12.595184,219.99724 31.897274,180.14493 66.544254,108.6106 126.7074,52.418321 200.2533,22.90068 306.38797,-19.696463 427.51625,-2.0604589 517.37331,69.072631 c 18.31106,14.49549 37.5758,33.739449 51.92834,51.872299 35.64844,45.03787 58.03833,97.21702 66.18384,154.24 3.6406,25.486 3.85372,59.02785 0.53881,84.80001 -14.82885,115.28931 -91.33027,213.69699 -199.20048,256.24171 -45.19185,17.82396 -94.40322,25.28393 -141.85052,21.50324 z m 40.96001,-45.76621 c 68.70834,-4.59103 129.85208,-32.46156 177.72454,-81.01037 26.7612,-27.1393 45.58882,-56.03054 60.01141,-92.08837 7.84455,-19.61211 14.25959,-44.92144 16.62733,-65.6 0.3829,-3.344 0.83921,-7.16 1.01402,-8.48 l 0.31784,-2.4 H 443.78088 295.9333 V 194.86493 47.344921 h -1.8504 c -3.31281,0 -20.02805,2.41893 -28.5496,4.13152 -49.29644,9.90721 -93.75433,32.65094 -131.64678,67.347739 -36.671406,33.57872 -64.173066,78.44834 -77.596636,126.60075 -7.92385,28.42409 -10.96953,55.0432 -9.84916,86.08144 1.74415,48.31973 17.33423,96.74068 44.40559,137.91857 53.801776,81.83718 148.161526,129.01522 245.086996,122.53874 z M 591.34922,294.22493 c -0.17715,-1.144 -0.49044,-3.808 -0.69619,-5.92 -0.20576,-2.112 -1.10013,-8.304 -1.98751,-13.76 C 577.94091,208.60478 542.70373,148.48805 489.97488,106.17287 454.77316,77.923291 412.18219,58.475091 368.25331,50.591461 c -8.81989,-1.58285 -21.17984,-3.24654 -24.11931,-3.24654 h -2.12069 V 171.39826 c 0,68.22934 0.192,124.24534 0.42666,124.48001 0.23467,0.23466 56.40772,0.42666 124.82901,0.42666 h 124.40234 z"
     style="fill-opacity:1;stroke-width:0.64000005" />
  <path
     style="stroke-width:0.64000005"
     d=""
     id="path895"
     inkscape:connector-curvature="0" />
</svg>
