<?xml version="1.0" encoding="UTF-8" standalone="no"?>
<!-- Created with Inkscape (http://www.inkscape.org/) -->

<svg
   xmlns:dc="http://purl.org/dc/elements/1.1/"
   xmlns:cc="http://creativecommons.org/ns#"
   xmlns:rdf="http://www.w3.org/1999/02/22-rdf-syntax-ns#"
   xmlns:svg="http://www.w3.org/2000/svg"
   xmlns="http://www.w3.org/2000/svg"
   xmlns:sodipodi="http://sodipodi.sourceforge.net/DTD/sodipodi-0.dtd"
   xmlns:inkscape="http://www.inkscape.org/namespaces/inkscape"
   width="186.60535mm"
   height="154.43199mm"
   viewBox="0 0 186.60535 154.43199"
   version="1.1"
   id="svg8"
   inkscape:version="0.92.3 (2405546, 2018-03-11)"
   sodipodi:docname="check.svg">
  <defs
     id="defs2" />
  <sodipodi:namedview
     id="base"
     pagecolor="#ffffff"
     bordercolor="#666666"
     borderopacity="1.0"
     inkscape:pageopacity="0.0"
     inkscape:pageshadow="2"
     inkscape:zoom="0.24748737"
     inkscape:cx="-95.931409"
     inkscape:cy="300.41142"
     inkscape:document-units="mm"
     inkscape:current-layer="layer1"
     showgrid="false"
     inkscape:window-width="1861"
     inkscape:window-height="1025"
     inkscape:window-x="59"
     inkscape:window-y="27"
     inkscape:window-maximized="1"
     fit-margin-top="0"
     fit-margin-left="0"
     fit-margin-right="0"
     fit-margin-bottom="0" />
  <metadata
     id="metadata5">
    <rdf:RDF>
      <cc:Work
         rdf:about="">
        <dc:format>image/svg+xml</dc:format>
        <dc:type
           rdf:resource="http://purl.org/dc/dcmitype/StillImage" />
        <dc:title></dc:title>
      </cc:Work>
    </rdf:RDF>
  </metadata>
  <g
     inkscape:label="Layer 1"
     inkscape:groupmode="layer"
     id="layer1"
     transform="translate(-12.530662,-13.409007)">
    <path
       style="fill:#00b050;fill-opacity:1;stroke-width:0.16933334"
       d="M 51.42434,132.71929 C 30.30049,113.39872 13.02773,97.528586 13.04043,97.452326 c 0.0387,-0.23239 34.9346,-38.334075 35.06354,-38.284707 0.0661,0.02533 8.70267,7.894647 19.19227,17.487387 10.4896,9.59273 19.14615,17.44133 19.23677,17.44133 0.0906,0 16.69807,-18.08055 36.90544,-40.179 20.20737,-22.098451 36.80013,-40.169198 36.87279,-40.157217 0.23069,0.03804 38.32365,34.934674 38.27686,35.065113 -0.0246,0.06865 -24.23826,26.577674 -53.80809,58.908968 -29.56984,32.33128 -54.03004,59.08323 -54.35601,59.44878 l -0.59266,0.66462 z"
       id="path918"
       inkscape:connector-curvature="0" />
  </g>
</svg>
