<svg xmlns="http://www.w3.org/2000/svg" viewBox="0 0 680.78 124.89"><defs><style>.cls-1{fill:none;}.cls-2{fill:#fff;}</style></defs><g id="Layer_2" data-name="Layer 2"><path class="cls-1" d="M690.21,27.4c-3.48-2.25-8.43-4-14.31-5.09A86.64,86.64,0,0,0,660.22,21a134.86,134.86,0,0,0-30.5,3.76c-16.82,4-31.89,10.5-42.43,18.41-4.78,3.6-8.43,7.38-10.54,10.94-1.87,3.14-2.52,6-1.92,8.53s2.45,4.8,5.52,6.78c3.48,2.24,8.43,4,14.31,5.09,13,2.39,29.37,1.52,46.19-2.43s31.88-10.5,42.42-18.42c4.78-3.59,8.43-7.37,10.54-10.93,1.87-3.15,2.52-6,1.93-8.53S693.29,29.38,690.21,27.4Z" transform="translate(-25.64 -10.52)"/><path class="cls-1" d="M626,125.39a3,3,0,0,1,1.36-.34,2.9,2.9,0,0,1,1.35.34,2.27,2.27,0,0,0-2.71,0Z" transform="translate(-25.64 -10.52)"/><path class="cls-2" d="M627.37,119.06a8.18,8.18,0,1,0,8.17,8.17A8.19,8.19,0,0,0,627.37,119.06Zm0,6a3,3,0,0,0-1.36.34,2.27,2.27,0,0,1,2.71,0A2.9,2.9,0,0,0,627.37,125.05Z" transform="translate(-25.64 -10.52)"/><path class="cls-2" d="M705.93,31.78C703.62,22,693.63,14.93,677.8,12c-14.36-2.64-32.28-1.74-50.48,2.54S592.67,26,581,34.78C568.14,44.45,562.32,55.19,564.63,65s12.31,16.84,28.13,19.76q3.27.6,6.77,1a1.62,1.62,0,0,0,1.42-.58,39.57,39.57,0,0,1,11.88-8.94.23.23,0,0,0-.11-.44,89.79,89.79,0,0,1-18.06-1.29c-5.88-1.09-10.83-2.85-14.31-5.09-3.07-2-4.93-4.26-5.52-6.78s0-5.39,1.92-8.53c2.11-3.56,5.76-7.34,10.54-10.94,10.54-7.91,25.61-14.45,42.43-18.41A134.86,134.86,0,0,1,660.22,21a86.64,86.64,0,0,1,15.68,1.33c5.88,1.09,10.83,2.84,14.31,5.09,3.08,2,4.93,4.26,5.53,6.78s-.06,5.38-1.93,8.53c-2.11,3.56-5.76,7.34-10.54,10.93-10.54,7.92-25.6,14.46-42.42,18.42-3.77.88-7.51,1.61-11.19,2.18v0c-6,.75-20.13,5.76-26.49,14a9.5,9.5,0,0,0-1.72,5.34,9.15,9.15,0,0,0,2.66,6.74c6.34,6.24,13.78-1.18,16.67,7.4a5.56,5.56,0,0,0,5.27,3.83h.07a5,5,0,0,0,4.8-6.48c-2.72-9.12-8.67-11.33-13.75-12.18a33.93,33.93,0,0,0-4.28-.13c6.12-5.24,24.37-9.21,24.76-9.29h0c1.86-.37,3.73-.77,5.59-1.21C661.44,78,677.89,70.78,689.56,62,702.43,52.34,708.24,41.61,705.93,31.78Z" transform="translate(-25.64 -10.52)"/><path class="cls-2" d="M625.64,127.15a3.06,3.06,0,0,0,.59.17c.31.05.62.1.94.12h.31a1.88,1.88,0,0,0,1-.22,2.16,2.16,0,0,0,1.32-1.32,1.88,1.88,0,0,0,.22-1l-.09-.67a2.5,2.5,0,0,0-.64-1.1l-.51-.39a2.43,2.43,0,0,0-1.26-.34,3.62,3.62,0,0,1-.47,0l.66.09a3.46,3.46,0,0,1-.7-.19,1.89,1.89,0,0,0-1,0,2.26,2.26,0,0,0-1.63.94,1.88,1.88,0,0,0-.44.85l-.09.67a2.43,2.43,0,0,0,.34,1.26l.39.51a2.5,2.5,0,0,0,1.1.64Z" transform="translate(-25.64 -10.52)"/><path class="cls-2" d="M628.2,127.4a3.78,3.78,0,0,1,.46-.1l-.67.09a3.62,3.62,0,0,1,.93,0l-.66-.09a4.2,4.2,0,0,1,.59.14l-.6-4.57,0,0,.6-.26a2.48,2.48,0,0,1-.66.18l.66-.09a2.41,2.41,0,0,1-.71,0l.66.09a2.73,2.73,0,0,1-.56-.15,1.85,1.85,0,0,0-1,0,1.71,1.71,0,0,0-.93.3,1.9,1.9,0,0,0-.71.64,1.78,1.78,0,0,0-.44.85l-.09.66a2.44,2.44,0,0,0,.34,1.27l.39.5a2.52,2.52,0,0,0,1.1.65,3.16,3.16,0,0,0,.53.13,4.88,4.88,0,0,0,2.28,0,5.6,5.6,0,0,0,1.08-.41l.51-.39.39-.51.25-.59a1.9,1.9,0,0,0,.05-1,1.24,1.24,0,0,0-.17-.63,1.27,1.27,0,0,0-.32-.55,1.38,1.38,0,0,0-.45-.45,1.94,1.94,0,0,0-.85-.45,3.3,3.3,0,0,0-.52-.13,10.56,10.56,0,0,0-1.13-.13,4.19,4.19,0,0,0-.5,0,7.44,7.44,0,0,0-1.15.18,2.87,2.87,0,0,0-1.5,1.15,2,2,0,0,0-.3.93,2,2,0,0,0,0,1l.25.6a2.48,2.48,0,0,0,.9.89l.6.26a2.47,2.47,0,0,0,1.32,0Z" transform="translate(-25.64 -10.52)"/><path class="cls-2" d="M626,127.25a3.52,3.52,0,0,1,.45.3l-.5-.39a3.53,3.53,0,0,1,.64.64l-.39-.51a3.87,3.87,0,0,1,.43.74l-.26-.6a2.51,2.51,0,0,1,.16.46,2.49,2.49,0,0,0,1.15,1.49l.6.25a1.86,1.86,0,0,0,1,.05,1.24,1.24,0,0,0,.63-.17,2,2,0,0,0,.81-.52l.39-.51a2.43,2.43,0,0,0,.34-1.26,12.51,12.51,0,0,0,0-2q-.08-.81-.21-1.62a5.07,5.07,0,0,0-.32-1.2,2.69,2.69,0,0,0-1.15-1.34,2.89,2.89,0,0,0-3,.16,5.25,5.25,0,0,0-.78.63,4.7,4.7,0,0,0-.83,1.14,6.27,6.27,0,0,0-.5,1.29,9.43,9.43,0,0,0-.17,2.9,2.64,2.64,0,0,0,.73,1.77,2.5,2.5,0,0,0,3.53,0,2.47,2.47,0,0,0,.74-1.77,9.43,9.43,0,0,1,0-1.84l-.09.66a3.9,3.9,0,0,1,.24-.89l-.25.6a3.14,3.14,0,0,1,.37-.64l-.39.5a2.28,2.28,0,0,1,.38-.38l-.5.39a1.21,1.21,0,0,1,.3-.2l-.59.26a.2.2,0,0,1,.11,0l-.67.09h.06l-.66-.09.05,0-.6-.26,0,0-.51-.39,0,0-.39-.5.05.09-.25-.6a6.15,6.15,0,0,1,.24,1.28l-.09-.66a12.55,12.55,0,0,1,.08,2.6l4.91-.66a6.72,6.72,0,0,0-.48-1.22,6.52,6.52,0,0,0-.76-1.1,3.14,3.14,0,0,0-.51-.52,6.3,6.3,0,0,0-1.08-.78,2.6,2.6,0,0,0-1.93-.26,2.5,2.5,0,0,0-1.74,3.08,2.49,2.49,0,0,0,1.15,1.49Z" transform="translate(-25.64 -10.52)"/></g><g id="Layer_3" data-name="Layer 3"><path class="cls-1" d="M366.85,111.27h.26a73.43,73.43,0,0,1,1.36-10.77l12.8-64.45H350.18l15.19,64.85A82.44,82.44,0,0,1,366.85,111.27Z" transform="translate(-25.64 -10.52)"/><path class="cls-1" d="M105.22,110.93a7.88,7.88,0,0,0,2.43,6,9.07,9.07,0,0,0,6.56,2.33,11.85,11.85,0,0,0,9.37-4.15,15.3,15.3,0,0,0,3.62-10.47V100l-12,1.61Q105.22,102.92,105.22,110.93Z" transform="translate(-25.64 -10.52)"/><path class="cls-1" d="M308.74,111.4h.38A56,56,0,0,1,311,100.09l16.81-64H294.45l13.06,64.31A80.09,80.09,0,0,1,308.74,111.4Z" transform="translate(-25.64 -10.52)"/><path class="cls-1" d="M523.89,78.27q-7.25,0-11.25,5.19t-4,14.68Q508.63,118,524,118q14.67,0,14.67-20.4Q538.69,78.26,523.89,78.27Z" transform="translate(-25.64 -10.52)"/><polygon class="cls-2" points="0 122.09 55.21 122.09 55.21 104.45 20.88 104.45 20.88 25.53 0 25.53 0 122.09"/><path class="cls-2" d="M118.09,62a58.84,58.84,0,0,0-13.48,1.75,48.61,48.61,0,0,0-11.67,4v16a39.07,39.07,0,0,1,22.5-7.34q11.76,0,11.76,11.32l-18,2.49q-22.82,3.09-22.82,23.16,0,9.49,5.53,15.19t15.16,5.69q13.05,0,19.72-11.58h.25v9.9H146.4V91.4Q146.4,62,118.09,62Zm9.11,42.62a15.3,15.3,0,0,1-3.62,10.47,11.85,11.85,0,0,1-9.37,4.15,9.07,9.07,0,0,1-6.56-2.33,7.88,7.88,0,0,1-2.43-6q0-8,10-9.36l12-1.61Z" transform="translate(-25.64 -10.52)"/><path class="cls-2" d="M204.17,98.47a23.51,23.51,0,0,0-5.66-4.1,57.75,57.75,0,0,0-7.37-3.24q-2.26-.8-4.56-1.58a28.72,28.72,0,0,1-4.17-1.75,10.15,10.15,0,0,1-3-2.32,4.81,4.81,0,0,1-1.16-3.23,4.29,4.29,0,0,1,.78-2.53,5.71,5.71,0,0,1,2.13-1.82,12.19,12.19,0,0,1,3.14-1.08,18.93,18.93,0,0,1,3.78-.37,34,34,0,0,1,8.69,1.18A31.83,31.83,0,0,1,205,81.17V64.74a64,64,0,0,0-8.92-2.06,57.9,57.9,0,0,0-8.92-.7,46.4,46.4,0,0,0-10.83,1.24,28.82,28.82,0,0,0-9.25,3.91A20.2,20.2,0,0,0,160.66,74a19.51,19.51,0,0,0-2.43,10,22.64,22.64,0,0,0,1.07,7.34,16.56,16.56,0,0,0,3.1,5.45,20.06,20.06,0,0,0,5,4.15,48.54,48.54,0,0,0,7,3.33c1.63.67,3.34,1.28,5.1,1.82a38.89,38.89,0,0,1,4.88,1.82,13,13,0,0,1,3.66,2.35,4.48,4.48,0,0,1,1.42,3.37,5,5,0,0,1-3.14,4.71,19.46,19.46,0,0,1-8.56,1.55,31.83,31.83,0,0,1-9.47-1.55,42.74,42.74,0,0,1-10.06-4.71V130.8a57.18,57.18,0,0,0,20.24,3.5,52,52,0,0,0,11.47-1.25,30.08,30.08,0,0,0,9.77-4,20.85,20.85,0,0,0,6.78-7.07,22.89,22.89,0,0,0,1.3-18A16.33,16.33,0,0,0,204.17,98.47Z" transform="translate(-25.64 -10.52)"/><path class="cls-2" d="M262.42,98.47a23.51,23.51,0,0,0-5.66-4.1,58.38,58.38,0,0,0-7.37-3.24q-2.26-.8-4.56-1.58a28.72,28.72,0,0,1-4.17-1.75,10.15,10.15,0,0,1-3-2.32,4.81,4.81,0,0,1-1.16-3.23,4.35,4.35,0,0,1,.77-2.53,5.82,5.82,0,0,1,2.14-1.82,12.24,12.24,0,0,1,3.13-1.08,19.11,19.11,0,0,1,3.79-.37A34,34,0,0,1,255,77.63a31.83,31.83,0,0,1,8.31,3.54V64.74a64,64,0,0,0-8.92-2.06,57.9,57.9,0,0,0-8.92-.7,46.4,46.4,0,0,0-10.83,1.24,28.72,28.72,0,0,0-9.25,3.91A20.2,20.2,0,0,0,218.91,74a19.51,19.51,0,0,0-2.43,10,22.64,22.64,0,0,0,1.07,7.34,16.38,16.38,0,0,0,3.1,5.45,20.19,20.19,0,0,0,5,4.15,49.6,49.6,0,0,0,6.95,3.33q2.46,1,5.11,1.82a38.89,38.89,0,0,1,4.88,1.82,13,13,0,0,1,3.66,2.35,4.48,4.48,0,0,1,1.42,3.37,5,5,0,0,1-3.14,4.71,19.46,19.46,0,0,1-8.56,1.55,31.78,31.78,0,0,1-9.47-1.55,42.56,42.56,0,0,1-10.06-4.71V130.8a57.14,57.14,0,0,0,20.24,3.5,52,52,0,0,0,11.47-1.25,29.93,29.93,0,0,0,9.76-4,20.78,20.78,0,0,0,6.79-7.07,22.89,22.89,0,0,0,1.3-18A16.33,16.33,0,0,0,262.42,98.47Z" transform="translate(-25.64 -10.52)"/><path class="cls-2" d="M368.47,100.5a73.43,73.43,0,0,0-1.36,10.77h-.26a82.44,82.44,0,0,0-1.48-10.37L350.18,36.05H327.81l-16.81,64a56,56,0,0,0-1.88,11.31h-.38a80.09,80.09,0,0,0-1.23-11L294.45,36.05H271.63L296,132.62h24.11l15.78-62a69,69,0,0,0,1.68-10.84h.26a54.07,54.07,0,0,0,1.48,10.84l15.39,62h23.14l24.51-96.57H381.27Z" transform="translate(-25.64 -10.52)"/><path class="cls-2" d="M453.16,62q-12.87,0-20.36,11.91h-.26V36.05H412.11v96.57h20.43V93.29a16.85,16.85,0,0,1,3.36-10.78,10.7,10.7,0,0,1,8.79-4.24q10.6,0,10.6,15.15v39.2h20.37V90.26Q475.66,62,453.16,62Z" transform="translate(-25.64 -10.52)"/><path class="cls-2" d="M524.27,62q-16.74,0-26.57,9.66t-9.82,26.77q0,16.56,9.47,26.23t26,9.66q16.8,0,26.47-10t9.67-27.13q0-15.9-9.38-25.56T524.27,62ZM524,118q-15.39,0-15.39-19.86,0-9.49,4-14.68t11.25-5.19q14.8,0,14.8,19.33Q538.69,118,524,118Z" transform="translate(-25.64 -10.52)"/></g></svg>