<svg xmlns="http://www.w3.org/2000/svg" xmlns:xlink="http://www.w3.org/1999/xlink" viewBox="0 0 1024 1024"><defs><style>.cls-1{fill:url(#linear-gradient);}.cls-2{fill:none;}.cls-3{fill:#fff;}</style><linearGradient id="linear-gradient" x1="363.88" y1="1064.81" x2="660.13" y2="-40.82" gradientUnits="userSpaceOnUse"><stop offset="0" stop-color="#a90f09"/><stop offset="0.1" stop-color="#b40f0c"/><stop offset="0.31" stop-color="#c61012"/><stop offset="0.54" stop-color="#d11115"/><stop offset="0.79" stop-color="#d51116"/><stop offset="0.84" stop-color="#d81c17"/><stop offset="0.91" stop-color="#e0381a"/><stop offset="1" stop-color="#eb5e1e"/></linearGradient><symbol id="Icon" data-name="Icon" viewBox="0 0 1024 1024"><path id="App_Icon_Placeholder" data-name="App Icon Placeholder" class="cls-1" d="M357,0H667C769.8,0,821.18,0,876.52,17.49a217.47,217.47,0,0,1,130,130C1024,202.83,1024,254.22,1024,357V667c0,102.8,0,154.19-17.5,209.53a217.43,217.43,0,0,1-130,130C821.18,1024,769.8,1024,667,1024H357c-102.79,0-154.17,0-209.51-17.5a217.43,217.43,0,0,1-130-130C0,821.18,0,769.79,0,667V357C0,254.22,0,202.83,17.5,147.48a217.47,217.47,0,0,1,130-130C202.82,0,254.2,0,357,0h0"/></symbol></defs><g id="Layer_3" data-name="Layer 3"><g id="_1024" data-name="1024"><g id="_YOUR_ICON_HERE_" data-name="[YOUR ICON HERE]"><use width="1024" height="1024" xlink:href="#Icon"/></g></g></g><g id="Layer_2" data-name="Layer 2"><path class="cls-2" d="M812.75,262.5c-19-12.28-46.15-21.91-78.35-27.85-26.31-4.85-55.23-7.26-85.87-7.26-52,0-109,6.92-167,20.56C389.44,269.61,307,305.41,249.25,348.77c-26.18,19.67-46.14,40.37-57.72,59.86-10.23,17.21-13.77,32.93-10.53,46.71s13.42,26.27,30.25,37.12c19.05,12.28,46.15,21.91,78.35,27.85,71,13.09,160.78,8.37,252.87-13.29S717.05,449.55,774.75,406.2c26.18-19.68,46.14-40.38,57.72-59.87,10.23-17.21,13.77-32.93,10.53-46.71S829.58,273.35,812.75,262.5Z" transform="translate(0 0)"/><path class="cls-2" d="M461.25,799a16,16,0,0,1,14.83,0,12.45,12.45,0,0,0-14.83,0Z" transform="translate(0 0)"/><path class="cls-3" d="M468.67,764.35a44.77,44.77,0,1,0,44.77,44.77A44.82,44.82,0,0,0,468.67,764.35Zm0,32.84a16,16,0,0,0-7.42,1.82,12.45,12.45,0,0,1,14.83,0A16,16,0,0,0,468.67,797.19Z" transform="translate(0 0)"/><path class="cls-3" d="M898.8,286.5c-12.65-53.81-67.35-92.25-154-108.23C666.2,163.78,568,168.7,468.4,192.14s-189.7,62.79-253.59,110.8c-70.44,52.93-102.27,111.72-89.61,165.53s67.35,92.24,154,108.22c11.92,2.2,24.3,3.94,37.06,5.25a9,9,0,0,0,7.78-3.16c16.88-19.89,40.59-36.3,65-49a1.25,1.25,0,0,0-.61-2.37c-35.49.77-68.87-1.57-98.88-7.11-32.2-5.94-59.3-15.57-78.35-27.85-16.83-10.85-27-23.34-30.25-37.12s.3-29.5,10.53-46.71c11.58-19.49,31.54-40.19,57.72-59.86C307,305.41,389.44,269.61,481.53,248c58-13.64,115-20.56,167-20.56,30.64,0,59.56,2.41,85.87,7.26,32.2,5.94,59.3,15.57,78.35,27.85,16.83,10.85,27,23.34,30.25,37.12s-.3,29.5-10.53,46.71c-11.58,19.49-31.54,40.19-57.72,59.87C717.05,449.55,634.56,485.35,542.47,507c-20.6,4.84-41.08,8.83-61.27,12v.09c-32.65,4.13-110.19,31.52-145,76.47-6,9-9.43,18.71-9.4,29.27.06,18.73,8,30.41,14.56,36.91,34.7,34.14,75.46-6.48,91.24,40.49a30.52,30.52,0,0,0,28.86,21h.41a27.51,27.51,0,0,0,26.28-35.48c-14.89-49.93-47.47-62-75.27-66.66-6.62-1.1-20.92-.71-23.47-.74,33.54-28.7,133.47-50.41,135.59-50.86h0v0q15.27-3,30.61-6.61C655.24,539.38,745.3,500,809.19,452,879.63,399.09,911.46,340.3,898.8,286.5Z" transform="translate(0 0)"/><path class="cls-3" d="M462.19,797.87a17.54,17.54,0,0,0,7.09,1.23,2.59,2.59,0,0,0,1.77-.73,2.49,2.49,0,0,0,.73-1.77,2.54,2.54,0,0,0-2.5-2.5,15.75,15.75,0,0,1-2.57-.12l.66.09a16.09,16.09,0,0,1-3.85-1,2.48,2.48,0,0,0-1.92.25,2.5,2.5,0,0,0-.9,3.42l.39.5a2.52,2.52,0,0,0,1.1.65Z" transform="translate(0 0)"/><path class="cls-3" d="M470.28,799.22c.44-.12.89-.23,1.33-.32l.58-.1.39-.06h-.09a21.58,21.58,0,0,1,2.54-.11c.43,0,.85,0,1.27.07.23,0,.46,0,.68.07-.66-.11,0,0,.11,0a18.79,18.79,0,0,1,2.66.66l-.6-4.57c.63-.27-.15.05-.27.09a4.72,4.72,0,0,1-.53.18,11.17,11.17,0,0,1-1.26.34c-.25.06-.49.1-.74.14-.52.1.5,0-.07,0s-.87.07-1.31.08-.87,0-1.31,0l-.55-.05c-.29,0-.25,0,.1,0l-.37-.06a14.69,14.69,0,0,1-2.52-.69,2.51,2.51,0,0,0-3.07,1.75,2.57,2.57,0,0,0,1.75,3.07,17,17,0,0,0,12.67-.54,2.48,2.48,0,0,0,1.2-2.5,2.53,2.53,0,0,0-1.79-2.07A21.32,21.32,0,0,0,469,794.4a2.5,2.5,0,0,0,1.33,4.82Z" transform="translate(0 0)"/><path class="cls-3" d="M466.86,799.56a16.32,16.32,0,0,1,8.07,10.16c.75,2.83,4.72,2.08,4.91-.66a71.18,71.18,0,0,0-.08-11.12q-.25-3-.74-5.88a22.7,22.7,0,0,0-1.17-5.25,3.86,3.86,0,0,0-4.74-2.26,10.17,10.17,0,0,0-4.18,2.86,18.24,18.24,0,0,0-4.42,8.35c-1,4.23-.81,8.6-.54,12.9a2.55,2.55,0,0,0,2.5,2.5,2.53,2.53,0,0,0,2.5-2.5c-.38-6.17-1-14.54,4.63-18.74.23-.17.84-.39,1-.62.31.39-.13.21-1.31-.52,0-.12,0-.1,0,.07a4.74,4.74,0,0,0,.29,1.24c.1.48.2,1,.29,1.44.35,1.84.63,3.7.81,5.57a70.26,70.26,0,0,1,.16,12l4.91-.66a21.27,21.27,0,0,0-10.37-13.16c-2.83-1.52-5.36,2.79-2.52,4.32Z" transform="translate(0 0)"/></g></svg>