<?xml version="1.0" encoding="utf-8"?>
<!-- Generator: Adobe Illustrator 25.1.0, SVG Export Plug-In . SVG Version: 6.00 Build 0)  -->
<svg version="1.1" id="Layer_1" xmlns="http://www.w3.org/2000/svg" xmlns:xlink="http://www.w3.org/1999/xlink" x="0px" y="0px"
	 viewBox="0 0 850.39 850.39" style="enable-background:new 0 0 850.39 850.39;" xml:space="preserve">
<style type="text/css">
	.st0{fill:#D51116;}
</style>
<path class="st0" d="M833.83,143.74c-0.22-0.68-0.45-1.36-0.69-2.04C811.97,83.53,766.47,38.04,708.31,16.87
	c-0.67-0.24-1.35-0.47-2.03-0.69c-47.77-15.1-90.5-15.1-168.08-15.1H311.8c-77.58,0-120.31,0-168.06,15.09
	c-0.68,0.22-1.36,0.45-2.03,0.69C83.54,38.03,38.04,83.53,16.88,141.69c-0.24,0.67-0.47,1.34-0.69,2.02
	C1.08,191.49,1.08,234.23,1.08,311.8v226.4c0,77.58,0,120.32,15.1,168.07c0.21,0.68,0.44,1.35,0.69,2.02
	c21.16,58.17,66.66,103.67,124.83,124.83c0.67,0.24,1.34,0.47,2.02,0.69c47.77,15.11,90.51,15.11,168.08,15.11h226.4
	c77.57,0,120.31,0,168.06-15.08c0.68-0.22,1.36-0.45,2.04-0.69c58.17-21.16,103.67-66.66,124.83-124.83
	c0.24-0.67,0.47-1.34,0.69-2.02c15.11-47.77,15.11-90.51,15.11-168.1V311.8C848.92,234.23,848.92,191.5,833.83,143.74z
	 M798.92,538.2c0,75.08,0,112.61-12.78,153.02c-16.05,44.13-50.81,78.89-94.94,94.94c-40.4,12.76-77.92,12.76-153,12.76H311.8
	c-75.07,0-112.59,0-153.01-12.78c-44.13-16.05-78.89-50.81-94.94-94.94c-12.77-40.4-12.77-77.93-12.77-153V311.8
	c0-75.06,0-112.59,12.78-153.01c16.06-44.13,50.81-78.88,94.94-94.94c40.4-12.77,77.92-12.77,153-12.77h226.4
	c75.08,0,112.6,0,153.01,12.77c44.13,16.06,78.88,50.81,94.94,94.94c12.77,40.42,12.77,77.95,12.77,153.01V538.2z"/>
<path class="st0" d="M425.67,651.81c-0.02,18-14.63,32.58-32.64,32.56c-18-0.02-32.58-14.63-32.56-32.64
	c0.02-18,14.63-32.58,32.64-32.56c17.96,0.04,32.51,14.59,32.56,32.56C425.67,651.76,425.67,651.78,425.67,651.81z M644.33,396.3
	c-47.25,35.55-113.55,64.6-186.69,81.8c-7.08,1.67-14.43,3.26-22.47,4.86c-12.33,2.55-55.08,13.17-81.42,26.49
	c19.68,3.35,47,12.51,58.91,52.43c0.75,2.43,1.14,5.01,1.13,7.63c-0.07,14.04-11.54,25.46-25.58,25.46c-0.01,0-0.11,0-0.12,0
	c-12.29-0.03-22.88-7.72-26.62-19.15c-4.6-13.66-11.57-14.35-22.55-14.35l-6.1,0.04c-11.26,0-24.28-1-36.38-12.91
	c-8.18-8.22-12.65-19.53-12.29-31.06c0.1-8.68,2.83-17.13,7.87-24.34c22-28.5,64.57-47.18,92.99-54.75l-0.05,0
	c0,0,32.63-8.69,57.94-12.86c14.39-2.37,26.68-5.42,35.15-7.79c53.01-15.7,99.94-37.85,134.42-63.76
	c18.5-13.89,32.51-28.39,40.54-41.92c6.7-11.29,9.07-21.32,7.05-29.8c-2.03-8.52-8.63-16.46-19.62-23.59
	c-13.15-8.51-32.17-15.24-54.98-19.47c-19.49-3.46-39.45-5.21-59.28-5.21l-2.14,0.01c-40.46,0.34-80.92,5.33-120.25,14.83
	c-66.31,15.61-125.61,41.32-167.02,72.39c-18.5,13.94-32.52,28.45-40.54,41.96c-6.72,11-9.07,21.02-7.01,29.83
	c1.98,8.47,8.57,16.4,19.58,23.57c13.22,8.51,32.24,15.25,54.97,19.46c19.81,3.45,40.12,5.2,60.31,5.2c1.02,0,2.03-0.04,3.05-0.05
	c-21.71,10.79-29.45,17.16-41.9,28.79c-9.13,8.53-12.81,16.13-14.29,20.63c-5.72-0.78-11.37-1.63-16.78-2.62
	c-65.41-12.07-106.81-41.55-116.58-83c-9.75-41.42,14.17-86.25,67.34-126.24c47.05-35.4,113.35-64.4,186.69-81.64
	c45.04-10.59,90.89-16.19,132.57-16.19c25.35,0,49.21,2.02,70.9,6.01c65.38,12.1,106.78,41.61,116.57,83.08
	C721.42,311.55,697.51,356.39,644.33,396.3z"/>
</svg>
